<?xml version="1.0" encoding="UTF-8"?>
<svg viewBox="0 0 793.7 1122.5" xmlns="http://www.w3.org/2000/svg">
 <g transform="rotate(-24.353 396.85 542.31)" stroke="#000">
  <g fill-rule="evenodd">
   <path d="m92.072 429.96l137.65-98.803c72.14-45.966 123.34-20.318 127.26-7.4102-108.92 39.888-129.27 97.189-88.305 117.33l592.16-196.37c7.949 21.942 16.058 40.568 20.778 54.033l-601.25 210.26c-71.656 22.993-67.678 108.56 14.284 96.333 35.265-10.119 83.368-4.0668 38.958 39.521-29.889 26.255-65.877 26.411-102.59 23.466-44.906-1.8666-87.059-5.4152-135.06 49.402-53.425 82.83-198.01 158.39-281.8 76.572-93.636-130.75-84.212-331.48 109.08-370.51l168.82 6.1752z" stroke-width="7.092"/>
   <g stroke-width="5.028">
    <path d="m-44.281 633.74c-16.55 90.793-56.434 130.49-103.89 149.44l-1.2986 16.056c54.541 5.2272 109.08 5.8573 163.62-40.756 63.229-55.697 92.044-130.49 272.71-121.03 22.796-2.4256 40.7-7.9528 42.854-23.466-71.83 16.635-126.51-5.3489-112.98-82.748l-246.09 86.453-14.934 16.055z"/>
    <path d="m-52.073 536.79l23.375 80.895-18.18 18.526-18.181 8.6453-14.284 8.6453-42.854-4.9401-20.778-66.692 24.673-18.526 14.285-22.231 24.674-6.1752 27.27 1.8526z"/>
    <path d="m-54.67 530c-0.23882-24.286 11.201-44.252 72.722-45.696 106.99 1.1408 143.37-27.933 183.1-55.577 22.706-5.951 29.068 11.053 31.166 24.701l-283.1 90.158-3.8958-13.585z"/>
    <path d="m-48.177 542.97l20.778 77.19 905.13-319.88-18.18-55.577-907.72 297.64v0.61731z"/>
   </g>
  </g>
  <path d="m-6.6221 644.86a11.687 9.8803 0 1 1 -23.375 0 11.687 9.8803 0 1 1 23.375 0z" stroke-width="5.028"/>
  <path d="m-31.062 714.75a11.687 9.8803 0 1 1 -23.375 0 11.687 9.8803 0 1 1 23.375 0z"/>
  <path d="m-18.076 680.79a11.687 9.8803 0 1 1 -23.375 0 11.687 9.8803 0 1 1 23.375 0z"/>
  <g fill-rule="evenodd">
   <g stroke-width="7.092">
    <path d="m9.6106 686.85l-4.5451 19.143 6.4931-1.8524 4.5451-14.821-6.4931-2.4699z" fill="none"/>
    <path d="m-12.466 517.65l27.271 102.51 22.076-7.4104-29.868-102.51-19.479 7.4102z"/>
    <path d="m49.867 499.74l30.517 100.04 20.128-6.1752-33.114-100.04-17.531 6.1754z"/>
    <path d="m110.25 482.45l32.465 99.42 18.83-6.1752-36.361-98.186-14.934 4.9403z"/>
   </g>
   <g fill="none">
    <path d="m-42.983 554.7l911.62-301.35-911.62 301.35z" stroke-width="7.092"/>
    <path d="m-29.858 602.74l923.03-320.84-923.03 320.84z" stroke-width="7.363"/>
    <path d="m-42.833 570.96l921.71-307.92-921.71 307.92z" stroke-width="7.203"/>
    <path d="m-35.1 586.73l920.53-313.53-920.53 313.53z" stroke-width="7.269"/>
    <path d="m232.97 445.92l23.369 71.825-23.369-71.825z" stroke-width="7.092"/>
    <path d="m540.35 347.98l19.566 68.208-19.566-68.208z" stroke-width="6.324"/>
    <g stroke-width="6.101">
     <path d="m592.18 331.81l18.876 65.805-18.876-65.805z"/>
     <path d="m642.82 314.52l18.876 65.805-18.876-65.805z"/>
    </g>
    <path d="m694.7 299.64l19.016 62.445-19.016-62.445z" stroke-width="5.965"/>
    <path d="m738.81 284.78l19.087 60.766-19.087-60.766z" stroke-width="5.895"/>
    <path d="m782.73 270.97l16.807 58.598-16.807-58.598z" stroke-width="5.432"/>
    <path d="m823.07 254.99l17.566 59.319-17.566-59.319z" stroke-width="5.588"/>
    <path d="m278.42 434.81l23.369 71.825-23.369-71.825z" stroke-width="7.092"/>
    <path d="m340.77 414.92l21.356 65.957-21.356-65.957z" stroke-width="6.289"/>
    <path d="m401.56 396.3l21.991 67.021-21.991-67.021z" stroke-width="6.646"/>
    <path d="m440.36 382.57l20.466 65.571-20.466-65.571z" stroke-width="6.341"/>
    <path d="m487.18 365.35l20.325 68.93-20.325-68.93z" stroke-width="6.479"/>
    <g stroke-width="7.092">
     <path d="m232.97 445.92l23.369 71.825-23.369-71.825z"/>
     <path d="m232.97 445.92l23.369 71.825-23.369-71.825z"/>
     <path d="m232.97 445.92l23.369 71.825-23.369-71.825z"/>
     <path d="m371.92 402.7l23.369 71.825-23.369-71.825z"/>
     <path d="m306.99 423.69l23.369 71.825-23.369-71.825z"/>
     <path d="m253.75 440.98l23.369 71.825-23.369-71.825z"/>
    </g>
   </g>
   <path d="m860.19 243.47l5.8439-8.0278 155.83-15.438 32.465 5.5577 11.687 11.115 7.1421 17.908-2.597 16.673-7.1423 9.263-10.389-3.7053-5.1945-12.968-12.337-3.0876-8.4412-0.6175-86.357 48.784-20.128 1.8525h-18.83l-12.337-8.6453-7.1422-4.3226-22.076-54.342z" stroke-width="7.092"/>
   <g stroke-width="5.028">
    <path d="m879.91 222.12l1.4281 11.857 12.375-0.4236-1.4279-12.704-12.376 1.2706z"/>
    <path d="m1012.4 209.77l1.4277 11.857 12.376-0.4234-1.4281-12.704-12.376 1.2706z"/>
    <path d="m986.4 212.24l1.4281 11.857 12.375-0.4233-1.4277-12.705-12.376 1.2706z"/>
    <path d="m961.08 214.71l1.428 11.857 12.376-0.4235-1.4279-12.704-12.376 1.2706z"/>
    <path d="m934.46 217.18l1.4279 11.857 12.376-0.4235-1.4279-12.704-12.376 1.2706z"/>
    <path d="m905.89 219.65l1.4281 11.857 12.375-0.4236-1.4277-12.704-12.376 1.2706z"/>
   </g>
  </g>
 </g>
</svg>
